<svg version="1.2" xmlns="http://www.w3.org/2000/svg" viewBox="0 0 23 19" width="23" height="19">
	<title>Icon material-email-svg</title>
	<style>
		.s0 { fill: #666666 } 
	</style>
	<path id="Icon_material-email" fill-rule="evenodd" class="s0" d="m21.5 0.2q0.5 0.1 0.8 0.5 0.3 0.3 0.5 0.7 0.2 0.4 0.2 0.9v13.8q0 0.4-0.2 0.8-0.2 0.5-0.5 0.8-0.3 0.3-0.8 0.5-0.4 0.2-0.8 0.2h-18.4q-0.5 0-0.9-0.2-0.4-0.2-0.7-0.5-0.3-0.3-0.5-0.8-0.2-0.4-0.2-0.8v-13.8q0-0.5 0.2-0.9 0.2-0.4 0.5-0.7 0.3-0.3 0.7-0.5 0.4-0.2 0.9-0.2h18.4q0.4 0 0.8 0.2zm-0.8 2.1l-9.2 5.7-9.2-5.7v2.3l9.2 5.7 9.2-5.7z"/>
</svg>