<svg xmlns="http://www.w3.org/2000/svg" width="17.964" height="16" viewBox="0 0 17.964 16">
  <path id="Icon_feather-phone" data-name="Icon feather-phone" d="M21.132,14.979v2.409a1.53,1.53,0,0,1-.585,1.19,1.952,1.952,0,0,1-1.384.416,19.357,19.357,0,0,1-7.8-2.465,16.774,16.774,0,0,1-5.419-4.817A14.793,14.793,0,0,1,3.175,4.75,1.5,1.5,0,0,1,3.64,3.523,1.916,1.916,0,0,1,4.973,3h2.71A1.754,1.754,0,0,1,9.489,4.381a9.384,9.384,0,0,0,.632,2.256,1.479,1.479,0,0,1-.406,1.694L8.568,9.351a13.761,13.761,0,0,0,5.419,4.817l1.147-1.02a1.973,1.973,0,0,1,1.906-.361,12.8,12.8,0,0,0,2.538.562A1.675,1.675,0,0,1,21.132,14.979Z" transform="translate(-3.168 -3)" fill="#333"/>
</svg>
