<svg xmlns="http://www.w3.org/2000/svg" width="19.333" height="19.372" viewBox="0 0 19.333 19.372">
  <path id="Icon_feather-phone" data-name="Icon feather-phone" d="M22.5,17.5v2.916a1.944,1.944,0,0,1-2.119,1.944,19.237,19.237,0,0,1-8.389-2.984A18.955,18.955,0,0,1,6.16,13.547,19.237,19.237,0,0,1,3.176,5.119,1.944,1.944,0,0,1,5.11,3H8.026A1.944,1.944,0,0,1,9.97,4.672a12.481,12.481,0,0,0,.68,2.732,1.944,1.944,0,0,1-.437,2.051L8.979,10.689a15.553,15.553,0,0,0,5.832,5.832l1.235-1.235a1.944,1.944,0,0,1,2.051-.437,12.481,12.481,0,0,0,2.732.68A1.944,1.944,0,0,1,22.5,17.5Z" transform="translate(-3.168 -3)" fill="#b1ef9b"/>
</svg>
